<svg xmlns="http://www.w3.org/2000/svg" width="94" height="94" fill="none" viewBox="0 0 94 94">
  <path fill="#7F32CD" d="M0 0h94v94H0V0z"/>
  <path fill="#fff" d="M0 0h22.69v3.241H0V0zm25.931 0h6.483v3.241H25.93V0zm16.207 0h9.724v3.241h-9.724V0zm16.207 0h6.483v3.241h-6.483V0zM71.31 0H94v3.241H71.31V0zM0 3.241h3.241v3.242H0V3.24zm19.448 0h3.242v3.242h-3.242V3.24zm6.483 0h3.241v3.242h-3.241V3.24zm6.483 0h3.241v3.242h-3.241V3.24zm6.483 0h12.965v3.242H38.897V3.24zm16.206 0h3.242v3.242h-3.242V3.24zm6.483 0h3.242v3.242h-3.242V3.24zm9.724 0h3.242v3.242H71.31V3.24zm19.449 0H94v3.242h-3.241V3.24zM0 6.483h3.241v3.241H0V6.483zm6.483 0h9.724v3.241H6.483V6.483zm12.965 0h3.242v3.241h-3.242V6.483zm6.483 0h6.483v3.241H25.93V6.483zm9.724 0h12.966v3.241H35.655V6.483zm29.173 0h3.241v3.241h-3.241V6.483zm6.482 0h3.242v3.241H71.31V6.483zm6.483 0h9.724v3.241h-9.724V6.483zm12.966 0H94v3.241h-3.241V6.483zM0 9.724h3.241v3.242H0V9.724zm6.483 0h9.724v3.242H6.483V9.724zm12.965 0h3.242v3.242h-3.242V9.724zm9.724 0h6.483v3.242h-6.483V9.724zm16.207 0h6.483v3.242H45.38V9.724zm16.207 0h6.483v3.242h-6.483V9.724zm9.724 0h3.242v3.242H71.31V9.724zm6.483 0h9.724v3.242h-9.724V9.724zm12.966 0H94v3.242h-3.241V9.724zM0 12.966h3.241v3.24H0v-3.24zm6.483 0h9.724v3.24H6.483v-3.24zm12.965 0h3.242v3.24h-3.242v-3.24zm6.483 0h3.241v3.24h-3.241v-3.24zm9.724 0h3.242v3.24h-3.242v-3.24zm6.483 0h3.241v3.24h-3.241v-3.24zm6.483 0h3.241v3.24h-3.241v-3.24zm6.482 0h3.242v3.24h-3.242v-3.24zm6.483 0h6.483v3.24h-6.483v-3.24zm9.724 0h3.242v3.24H71.31v-3.24zm6.483 0h9.724v3.24h-9.724v-3.24zm12.966 0H94v3.24h-3.241v-3.24zM0 16.206h3.241v3.242H0v-3.241zm19.448 0h3.242v3.242h-3.242v-3.241zm9.724 0h3.242v3.242h-3.242v-3.241zm9.725 0h9.724v3.242h-9.724v-3.241zm25.93 0h3.242v3.242h-3.241v-3.241zm6.483 0h3.242v3.242H71.31v-3.241zm19.449 0H94v3.242h-3.241v-3.241zM0 19.449h22.69v3.242H0v-3.242zm25.931 0h3.241v3.242h-3.241v-3.242zm6.483 0h3.241v3.242h-3.241v-3.242zm6.483 0h3.24v3.242h-3.24v-3.242zm6.482 0h3.242v3.242h-3.242v-3.242zm6.483 0h3.241v3.242h-3.24v-3.242zm6.483 0h3.241v3.242h-3.241v-3.242zm6.483 0h3.241v3.242h-3.241v-3.242zm6.482 0H94v3.242H71.31v-3.242zM32.414 22.69h3.241v3.241h-3.241V22.69zm12.965 0h3.242v3.241h-3.242V22.69zm12.966 0h3.241v3.241h-3.241V22.69zm6.483 0h3.241v3.241h-3.241V22.69zM0 25.93h3.241v3.241H0v-3.241zm9.724 0h45.38v3.241H9.723v-3.241zm58.345 0h3.241v3.241H68.07v-3.241zm9.724 0h3.241v3.241h-3.24v-3.241zm6.483 0H94v3.241h-9.724v-3.241zM0 29.172h3.241v3.242H0v-3.242zm6.483 0h3.241v3.242H6.483v-3.242zm6.483 0h3.24v3.242h-3.24v-3.242zm9.724 0h3.241v3.242H22.69v-3.242zm12.965 0h3.242v3.242h-3.242v-3.242zm9.724 0h3.242v3.242h-3.242v-3.242zm16.207 0h3.242v3.242h-3.242v-3.242zm16.207 0h3.241v3.242h-3.24v-3.242zm6.483 0h6.483v3.242h-6.483v-3.242zM0 32.414h6.483v3.241H0v-3.241zm12.966 0h3.24v3.241h-3.24v-3.241zm6.482 0h6.483v3.241h-6.483v-3.241zm16.207 0h3.242v3.241h-3.242v-3.241zm9.724 0h3.242v3.241h-3.242v-3.241zm12.966 0h3.241v3.241h-3.241v-3.241zm6.483 0h3.241v3.241h-3.241v-3.241zm6.482 0h6.483v3.241H71.31v-3.241zm12.966 0h3.241v3.241h-3.241v-3.241zM0 35.655h3.241v3.242H0v-3.242zm12.966 0h6.482v3.242h-6.482v-3.242zm16.206 0h6.483v3.242h-6.483v-3.242zm9.725 0h3.24v3.242h-3.24v-3.242zm6.482 0h6.483v3.242H45.38v-3.242zm9.724 0H68.07v3.242H55.103v-3.242zm19.449 0h3.241v3.242h-3.241v-3.242zm6.482 0h3.242v3.242h-3.242v-3.242zm9.725 0H94v3.242h-3.241v-3.242zM3.24 38.897h3.242v3.24H3.24v-3.24zm9.725 0h3.24v3.24h-3.24v-3.24zm6.482 0h3.242v3.24h-3.242v-3.24zm6.483 0h3.241v3.24h-3.241v-3.24zm16.207 0h6.483v3.24h-6.483v-3.24zm9.724 0h6.483v3.24h-6.483v-3.24zm12.966 0h3.241v3.24h-3.241v-3.24zm6.482 0h3.242v3.24H71.31v-3.24zm19.449 0H94v3.24h-3.241v-3.24zM0 42.137h9.724v3.242H0v-3.241zm12.966 0h6.482v3.242h-6.482v-3.241zm9.724 0h3.241v3.242H22.69v-3.241zm9.724 0h3.241v3.242h-3.241v-3.241zm38.896 0H94v3.242H71.31v-3.241zM0 45.38h3.241v3.242H0v-3.242zm16.207 0h9.724v3.242h-9.724v-3.242zm16.207 0h3.241v3.242h-3.241v-3.242zm6.483 0h3.24v3.242h-3.24v-3.242zm6.482 0h9.724v3.242H45.38v-3.242zm16.207 0h19.448v3.242H61.586v-3.242zm22.69 0h3.241v3.242h-3.241v-3.242zm6.483 0H94v3.242h-3.241v-3.242zM0 48.621h3.241v3.241H0v-3.241zm6.483 0h12.965v3.241H6.483v-3.241zm19.448 0h3.241v3.241h-3.241v-3.241zm6.483 0h3.241v3.241h-3.241v-3.241zm6.483 0h16.206v3.241H38.897v-3.241zm19.448 0h3.241v3.241h-3.241v-3.241zm6.483 0h9.724v3.241h-9.724v-3.241zm12.965 0h3.241v3.241h-3.24v-3.241zm6.483 0h3.241v3.241h-3.241v-3.241zm6.483 0H94v3.241h-3.241v-3.241zM3.24 51.862h3.242v3.241H3.24v-3.24zm9.725 0h3.24v3.241h-3.24v-3.24zm6.482 0h3.242v3.241h-3.242v-3.24zm9.724 0h6.483v3.241h-6.483v-3.24zm19.449 0h3.241v3.241h-3.241v-3.24zm9.724 0h9.724v3.241h-9.724v-3.24zm16.207 0h3.241v3.241h-3.241v-3.24zm6.482 0h3.242v3.241h-3.242v-3.24zM0 55.103h6.483v3.242H0v-3.242zm16.207 0h3.241v3.242h-3.241v-3.242zm9.724 0h3.241v3.242h-3.241v-3.242zm22.69 0h3.241v3.242h-3.241v-3.242zm6.482 0h3.242v3.242h-3.242v-3.242zm6.483 0h9.724v3.242h-9.724v-3.242zm16.207 0h3.241v3.242h-3.24v-3.242zm6.483 0h6.483v3.242h-6.483v-3.242zM0 58.345h6.483v3.241H0v-3.241zm9.724 0h3.242v3.241H9.724v-3.241zm6.483 0h6.483v3.241h-6.483v-3.241zm16.207 0h3.241v3.241h-3.241v-3.241zm9.724 0h32.414v3.241H42.138v-3.241zm35.655 0h6.483v3.241h-6.483v-3.241zm12.966 0H94v3.241h-3.241v-3.241zM0 61.586h16.207v3.242H0v-3.242zm32.414 0h3.241v3.242h-3.241v-3.242zm9.724 0h3.241v3.242h-3.241v-3.242zm6.483 0h6.482v3.242h-6.482v-3.242zm9.724 0h6.483v3.242h-6.483v-3.242zm16.207 0h12.965v3.242H74.552v-3.242zM0 64.828h9.724v3.241H0v-3.241zm12.966 0H25.93v3.241H12.965v-3.241zm19.448 0h3.241v3.241h-3.241v-3.241zm6.483 0h6.482v3.241h-6.482v-3.241zm12.965 0h3.241v3.241h-3.24v-3.241zm12.966 0h25.93v3.241h-25.93v-3.241zM25.93 68.069h19.448v3.241H25.931V68.07zm22.69 0h3.241v3.241h-3.241V68.07zm9.724 0h3.241v3.241h-3.241V68.07zm6.483 0h3.241v3.241h-3.241V68.07zm12.965 0h6.483v3.241h-6.483V68.07zM0 71.31h22.69v3.242H0V71.31zm25.931 0h3.241v3.242h-3.241V71.31zm6.483 0h6.483v3.242h-6.483V71.31zm9.724 0h3.241v3.242h-3.241V71.31zm6.483 0h6.482v3.242h-6.482V71.31zm12.965 0h6.483v3.242h-6.483V71.31zm9.724 0h3.242v3.242H71.31V71.31zm6.483 0h6.483v3.242h-6.483V71.31zM0 74.552h3.241v3.241H0v-3.241zm19.448 0h3.242v3.241h-3.242v-3.241zm6.483 0h3.241v3.241h-3.241v-3.241zm16.207 0h3.241v3.241h-3.241v-3.241zm9.724 0h6.483v3.241h-6.483v-3.241zm9.724 0h6.483v3.241h-6.483v-3.241zm16.207 0h3.241v3.241h-3.24v-3.241zm9.724 0H94v3.241h-6.483v-3.241zM0 77.793h3.241v3.241H0v-3.24zm6.483 0h9.724v3.241H6.483v-3.24zm12.965 0h3.242v3.241h-3.242v-3.24zm6.483 0h3.241v3.241h-3.241v-3.24zm16.207 0h3.241v3.241h-3.241v-3.24zm6.483 0h3.241v3.241h-3.241v-3.24zm6.482 0h3.242v3.241h-3.242v-3.24zm6.483 0h22.69v3.241h-22.69v-3.24zm25.931 0H94v3.241h-6.483v-3.24zM0 81.034h3.241v3.242H0v-3.242zm6.483 0h9.724v3.242H6.483v-3.242zm12.965 0h3.242v3.242h-3.242v-3.242zm6.483 0h3.241v3.242h-3.241v-3.242zm6.483 0h3.241v3.242h-3.241v-3.242zm12.965 0h3.242v3.242h-3.242v-3.242zm6.483 0h3.241v3.242h-3.24v-3.242zm6.483 0h6.483v3.242h-6.483v-3.242zm9.724 0h3.241v3.242H68.07v-3.242zm6.483 0h3.241v3.242h-3.241v-3.242zm16.207 0H94v3.242h-3.241v-3.242zM0 84.276h3.241v3.241H0v-3.241zm6.483 0h9.724v3.241H6.483v-3.241zm12.965 0h3.242v3.241h-3.242v-3.241zm9.724 0h3.242v3.241h-3.242v-3.241zm6.483 0h3.242v3.241h-3.242v-3.241zm9.724 0h9.724v3.241H45.38v-3.241zm12.966 0h3.241v3.241h-3.241v-3.241zm6.483 0h3.241v3.241h-3.241v-3.241zm12.965 0h3.241v3.241h-3.24v-3.241zm6.483 0H94v3.241h-9.724v-3.241zM0 87.517h3.241v3.242H0v-3.242zm19.448 0h3.242v3.242h-3.242v-3.242zm9.724 0h6.483v3.242h-6.483v-3.242zm12.966 0h12.965v3.242H42.138v-3.242zm29.172 0h6.483v3.242H71.31v-3.242zm9.724 0h6.483v3.242h-6.483v-3.242zm9.725 0H94v3.242h-3.241v-3.242zM0 90.76h22.69V94H0v-3.241zm25.931 0h3.241V94h-3.241v-3.241zm6.483 0h6.483V94h-6.483v-3.241zm9.724 0h3.241V94h-3.241v-3.241zm6.483 0h9.724V94H48.62v-3.241zm16.207 0h6.482V94h-6.482v-3.241zm12.965 0h6.483V94h-6.483v-3.241z"/>
</svg>
