<svg width="29" height="29" viewBox="0 0 29 29" fill="none" xmlns="http://www.w3.org/2000/svg">
<path d="M28.8606 24.1411C28.8599 26.303 27.1178 28.0445 24.9559 28.0445H4.71823C2.55634 28.0445 0.815402 26.303 0.816126 24.1411L0.82291 3.90341C0.823635 1.74152 2.56574 0 4.72763 0L24.9653 0C27.1272 0 28.8681 1.74152 28.8674 3.90341L28.8606 24.1411Z" fill="#F25621"/>
<path d="M24.0332 4.47393H18.4183C18.2081 4.47393 18.0279 4.65409 18.0279 4.86428L18.0262 9.87865H18.6567C18.7468 9.87865 18.8068 9.96873 18.8068 10.0588C18.8068 10.0888 18.8068 10.1189 18.7767 10.1489L15.2024 13.7821C15.0822 13.9322 15.0822 14.1123 15.2022 14.2625L18.8042 17.9257C18.8342 17.9557 18.8342 17.9857 18.8342 18.0158C18.8341 18.1058 18.774 18.1659 18.684 18.1959H18.0534L18.0517 23.2103C18.0517 23.4205 18.2318 23.6006 18.4419 23.6006H24.0568C24.267 23.6006 24.4472 23.4205 24.4473 23.2103L24.4535 4.83425C24.3935 4.62407 24.2434 4.47393 24.0332 4.47393ZM10.9399 10.1489C10.8799 10.0888 10.8799 9.96873 10.94 9.90868C10.97 9.87865 11 9.84863 11.0601 9.84863H11.6906L11.6923 4.83425C11.6924 4.62407 11.5123 4.44391 11.3021 4.44391H5.68722C5.47703 4.44391 5.29681 4.62407 5.29674 4.83425L5.29059 23.1803C5.29052 23.3904 5.47062 23.5706 5.6808 23.5706H11.2957C11.5059 23.5706 11.6861 23.3904 11.6862 23.1803L11.6879 18.1959H11.0573C10.9672 18.1959 10.8772 18.1058 10.9072 18.0158C10.9072 17.9857 10.9373 17.9257 10.9673 17.8957L14.5417 14.2625C14.6618 14.1123 14.6619 13.9322 14.5418 13.7821L10.9399 10.1489Z" fill="white"/>
</svg>
